# xmcd
#
# Track frame offsets:
#	150
#	17580
#	35823
#	51550
#	72964
#	88950
#	106090
#	120570
#	138466
#	155575
#	171916
#	187978
#
# Disc length: 2718 seconds
#
# Revision: 0
# Processed by: cddbd v1.5.2PL0 Copyright (c) Steve Scherf et al.
# Submitted via: dBpowerAMP V4.0
#
DISCID=a80a9c0c
DTITLE=Ladies of the Canyon - Haunted Woman
DYEAR=2010
DGENRE=Country
TTITLE0=Follow Me Down
TTITLE1=Give It Again
TTITLE2=Maybe Baby
TTITLE3=Haunted Woman
TTITLE4=Hard To Find Love
TTITLE5=Forget Me
TTITLE6=No Deliverance
TTITLE7=Poet
TTITLE8=Lonely Town
TTITLE9=War And Glory
TTITLE10=Every Minute
TTITLE11=Goodbye Gold and Blue
EXTD=
EXTT0=
EXTT1=
EXTT2=
EXTT3=
EXTT4=
EXTT5=
EXTT6=
EXTT7=
EXTT8=
EXTT9=
EXTT10=
EXTT11=
PLAYORDER=
